<svg width="34" height="36" viewBox="0 0 34 36" fill="none" xmlns="http://www.w3.org/2000/svg">
<path d="M30.3571 0H3.64286C1.63096 0 0 1.567 0 3.5V31.5C0 33.433 1.63096 35 3.64286 35H30.3571C32.369 35 34 33.433 34 31.5V3.5C34 1.567 32.369 0 30.3571 0Z" fill="#E50914"/>
<path d="M20.4257 26.6029C21.1447 26.6029 21.7087 26.2629 22.1176 25.5837C22.5266 24.9037 22.7314 23.9487 22.7314 22.7171C22.7314 21.4855 22.5266 20.5297 22.1176 19.8498C21.7087 19.1706 21.1447 18.8306 20.4257 18.8306C19.7066 18.8306 19.1426 19.1706 18.733 19.8498C18.3241 20.5297 18.12 21.4855 18.12 22.7171C18.12 23.9487 18.3241 24.9037 18.733 25.5837C19.1426 26.2629 19.7066 26.6029 20.4257 26.6029ZM20.4257 28.885C19.4131 28.885 18.5275 28.6327 17.768 28.1288C17.0093 27.6249 16.423 26.9115 16.0111 25.9878C15.5993 25.0641 15.3931 23.9743 15.3931 22.7171C15.3931 21.4705 15.5993 20.3829 16.0111 19.4542C16.423 18.5255 17.0093 17.8092 17.768 17.3046C18.5275 16.8007 19.4131 16.5484 20.4257 16.5484C21.4375 16.5484 22.3239 16.8007 23.0834 17.3046C23.8428 17.8092 24.4277 18.5255 24.8402 19.4542C25.2513 20.3829 25.4583 21.4705 25.4583 22.7171C25.4583 23.9743 25.2513 25.0641 24.8402 25.9878C24.4277 26.9115 23.8428 27.6249 23.0834 28.1288C22.3239 28.6327 21.4375 28.885 20.4257 28.885Z" fill="white"/>
<path d="M10.7668 28.6913V19.9982L8.35577 20.614V17.912L13.4483 16.627V28.6913H10.7668Z" fill="white"/>
<path d="M24.3329 11.3071H25.2676C25.7291 11.3071 26.0638 11.218 26.2715 11.0391C26.4792 10.8609 26.583 10.6079 26.583 10.2808C26.583 9.96148 26.4792 9.71487 26.2715 9.53954C26.0638 9.36492 25.7291 9.27726 25.2676 9.27726H24.3329V11.3071ZM22.1404 15.401V7.46408H25.6137C26.2679 7.46408 26.8326 7.58168 27.31 7.81759C27.7867 8.05351 28.156 8.38421 28.4178 8.80971C28.6789 9.23592 28.8102 9.72628 28.8102 10.2808C28.8102 10.851 28.6789 11.3492 28.4178 11.7747C28.156 12.2002 27.7867 12.5316 27.31 12.7668C26.8326 13.0027 26.2679 13.1203 25.6137 13.1203H24.3329V15.401H22.1404Z" fill="white"/>
<path d="M17.0858 13.6791C17.4782 13.6791 17.8222 13.5865 18.1186 13.3997C18.415 13.2137 18.6458 12.9514 18.811 12.6129C18.9769 12.2743 19.0591 11.8816 19.0591 11.4326C19.0591 10.9843 18.9769 10.5909 18.811 10.2523C18.6458 9.91379 18.415 9.65222 18.1186 9.46549C17.8222 9.27946 17.4782 9.1861 17.0858 9.1861C16.6935 9.1861 16.3495 9.27946 16.0531 9.46549C15.7566 9.65222 15.5259 9.91379 15.3607 10.2523C15.1955 10.5909 15.1126 10.9843 15.1126 11.4326C15.1126 11.8816 15.1955 12.2743 15.3607 12.6129C15.5259 12.9514 15.7566 13.2137 16.0531 13.3997C16.3495 13.5865 16.6935 13.6791 17.0858 13.6791ZM17.0858 15.5949C16.4699 15.5949 15.9067 15.4909 15.3953 15.2813C14.884 15.0725 14.4397 14.7796 14.0625 14.4033C13.686 14.0269 13.3954 13.5865 13.1913 13.0804C12.9872 12.5751 12.8855 12.0256 12.8855 11.4326C12.8855 10.8396 12.9872 10.2908 13.1913 9.78479C13.3954 9.27946 13.686 8.83829 14.0625 8.46197C14.4397 8.08565 14.884 7.79343 15.3953 7.58389C15.9067 7.37506 16.4699 7.27029 17.0858 7.27029C17.7018 7.27029 18.265 7.37506 18.7764 7.58389C19.2877 7.79343 19.732 8.08565 20.1092 8.46197C20.4864 8.83829 20.7763 9.27946 20.9804 9.78479C21.1845 10.2908 21.2862 10.8396 21.2862 11.4326C21.2862 12.0256 21.1845 12.5751 20.9804 13.0804C20.7763 13.5865 20.4864 14.0269 20.1092 14.4033C19.732 14.7796 19.2877 15.0725 18.7764 15.2813C18.265 15.4909 17.7018 15.5949 17.0858 15.5949Z" fill="white"/>
<path d="M10.2776 15.4011L8.08514 15.9199V9.33435H5.65033V7.46415H12.7124V9.33435H10.2776V15.4011Z" fill="white"/>
</svg>
